<svg width="32" height="32" viewBox="0 0 32 32" fill="none" xmlns="http://www.w3.org/2000/svg">
<path d="M9.40798 3.22399L10.964 2.75599C11.8164 2.49896 12.7332 2.56083 13.5433 2.93007C14.3534 3.29931 15.0015 3.95069 15.3667 4.76266L16.5693 7.43732C16.8833 8.13573 16.9707 8.91489 16.8193 9.66551C16.668 10.4161 16.2854 11.1005 15.7253 11.6227L13.7333 13.48C13.6751 13.5343 13.6382 13.6076 13.6293 13.6867C13.5707 14.216 13.9293 15.2467 14.756 16.68C15.3573 17.7213 15.9027 18.4533 16.3653 18.8627C16.688 19.1493 16.8653 19.2107 16.9413 19.1893L19.6213 18.3693C20.3532 18.1455 21.1368 18.1562 21.8622 18.4001C22.5877 18.644 23.2186 19.1088 23.6667 19.7293L25.3747 22.0973C25.8941 22.8174 26.1345 23.7016 26.0514 24.5855C25.9683 25.4695 25.5672 26.2933 24.9227 26.904L23.7413 28.024C23.1143 28.6177 22.3443 29.039 21.5061 29.2467C20.668 29.4544 19.7903 29.4415 18.9587 29.2093C15.2867 28.184 11.9947 25.0853 9.04532 19.9773C6.09198 14.8627 5.05598 10.4573 6.01065 6.75999C6.22555 5.92844 6.65103 5.16626 7.24608 4.54692C7.84113 3.92758 8.58569 3.47197 9.40798 3.22399ZM9.98532 5.13999C9.49208 5.2886 9.04542 5.56171 8.68836 5.93302C8.33129 6.30433 8.07586 6.76132 7.94665 7.25999C7.14398 10.3693 8.06265 14.2747 10.7773 18.9773C13.488 23.6733 16.4067 26.42 19.4973 27.284C19.9962 27.4229 20.5225 27.4304 21.0251 27.3056C21.5276 27.1808 21.9894 26.9281 22.3653 26.572L23.548 25.452C23.8411 25.1744 24.0234 24.7998 24.0612 24.3979C24.099 23.996 23.9896 23.594 23.7533 23.2667L22.0467 20.9C21.843 20.6176 21.556 20.4061 21.226 20.2951C20.896 20.1842 20.5395 20.1793 20.2067 20.2813L17.52 21.104C15.96 21.568 14.544 20.3133 13.024 17.68C12 15.9067 11.5227 14.5333 11.6413 13.4653C11.704 12.9107 11.9613 12.3987 12.3693 12.0173L14.3613 10.16C14.616 9.92268 14.79 9.61157 14.8589 9.27033C14.9277 8.92909 14.888 8.57484 14.7453 8.25732L13.5427 5.58266C13.3767 5.21387 13.0823 4.91801 12.7143 4.75022C12.3463 4.58242 11.9299 4.55415 11.5427 4.67066L9.98532 5.13999Z" fill="white"/>
</svg>
